<?xml version="1.0" standalone="no"?>
<!DOCTYPE svg PUBLIC "-//W3C//DTD SVG 20010904//EN"
 "http://www.w3.org/TR/2001/REC-SVG-20010904/DTD/svg10.dtd">
<svg version="1.0" xmlns="http://www.w3.org/2000/svg"
 width="1536.000000pt" height="864.000000pt" viewBox="0 0 1536.000000 864.000000"
 preserveAspectRatio="xMidYMid meet">

<g transform="translate(0.000000,864.000000) scale(0.100000,-0.100000)"
fill="#000000" stroke="none">
<path d="M0 4320 l0 -4320 7680 0 7680 0 0 4320 0 4320 -7680 0 -7680 0 0
-4320z m14919 4036 c6 -7 11 -29 11 -47 -2 -57 16 -140 31 -150 8 -5 26 -6 41
-3 22 4 29 0 43 -25 13 -27 13 -31 1 -31 -8 0 -18 5 -21 10 -3 6 -23 10 -43
10 -21 0 -47 7 -59 15 -20 14 -23 13 -42 -11 -11 -14 -23 -34 -26 -45 -5 -14
-16 -19 -41 -19 -36 0 -46 15 -16 24 16 6 82 107 82 127 0 5 -11 7 -25 3 -13
-3 -38 -2 -54 4 -28 10 -29 9 -55 -51 -14 -34 -26 -70 -26 -80 0 -21 -25 -33
-43 -20 -6 5 -38 20 -69 33 -32 12 -58 29 -58 36 0 19 9 18 74 -11 31 -14 58
-25 60 -25 2 0 16 30 31 68 39 94 40 94 99 87 59 -7 94 8 63 26 -16 10 -31 36
-36 64 -1 6 8 13 21 17 36 10 45 9 57 -6z m-1226 -92 c-1 -11 5 -23 13 -27 8
-5 14 -23 14 -43 l0 -35 83 3 82 3 3 33 c5 45 32 44 32 -2 0 -67 1 -66 -144
-66 -144 0 -156 4 -156 55 0 38 9 51 40 64 24 10 24 10 3 10 -13 1 -23 7 -23
15 0 10 9 14 28 11 19 -2 27 -8 25 -21z m225 -6 c-6 -18 -28 -21 -28 -4 0 9 7
16 16 16 9 0 14 -5 12 -12z m219 -1 c-5 -16 -57 -19 -57 -3 0 8 13 13 31 14
19 0 29 -4 26 -11z m303 -2 c0 -10 -10 -15 -27 -15 -16 0 -35 -5 -43 -10 -11
-7 -4 -10 26 -10 53 0 77 -18 72 -55 l-3 -30 -136 -3 c-133 -2 -136 -3 -149
-27 -7 -14 -17 -25 -21 -25 -15 0 -21 22 -10 33 6 6 11 35 11 64 0 40 4 53 15
53 10 0 15 -11 15 -35 l0 -35 125 0 c69 0 125 4 125 9 0 14 -27 21 -76 21 -36
0 -44 3 -44 18 0 21 19 48 40 55 33 12 80 7 80 -8z m-412 -17 c7 -7 12 -27 12
-45 0 -29 3 -33 25 -33 22 0 25 4 25 35 0 25 4 35 16 35 12 0 14 -10 12 -47
-3 -47 -4 -48 -37 -51 -22 -2 -41 -12 -53 -28 -24 -29 -42 -31 -35 -3 4 15 -1
22 -17 29 -38 14 -47 60 -20 98 17 24 53 29 72 10z m642 -4 c22 -9 40 -20 40
-25 0 -21 -30 -79 -40 -79 -20 0 -80 29 -80 38 0 13 29 82 35 82 2 0 23 -7 45
-16z m-10872 -3286 c8 -8 12 -54 12 -140 0 -116 -2 -128 -19 -138 -11 -5 -84
-10 -166 -10 -82 0 -155 5 -166 10 -17 10 -19 22 -19 140 0 112 2 130 18 139
25 15 325 14 340 -1z m460 0 c8 -8 12 -54 12 -140 0 -116 -2 -128 -19 -138
-11 -5 -85 -10 -167 -10 -191 0 -184 -6 -184 151 0 94 3 121 16 133 13 13 43
16 173 16 109 0 161 -4 169 -12z m-945 -177 c15 -12 17 -45 17 -285 0 -198 3
-275 12 -284 9 -9 132 -12 492 -12 432 0 481 -2 498 -17 15 -14 18 -32 18
-131 0 -154 2 -152 -145 -152 l-112 0 -13 -45 c-32 -115 -158 -191 -275 -165
-87 19 -166 97 -181 176 l-6 34 -168 0 -168 0 -6 -34 c-15 -79 -94 -157 -181
-176 -117 -26 -243 50 -275 165 l-13 45 -93 0 c-89 0 -95 1 -126 29 l-33 29 0
164 c1 190 8 217 97 345 30 43 74 113 98 155 50 90 102 144 156 164 54 19 383
16 407 -5z m7512 -205 c-14 -23 -25 -46 -25 -49 0 -4 26 -7 58 -7 96 0 132
-44 132 -165 l0 -65 -440 1 -440 0 0 69 0 70 -50 0 -50 0 0 -84 c0 -47 -4 -96
-9 -109 -16 -42 -51 -67 -93 -67 -34 0 -38 3 -38 25 0 18 5 25 19 25 45 0 51
22 51 176 l0 145 33 -3 c24 -2 33 -8 35 -25 3 -20 9 -23 53 -23 46 0 49 2 49
26 0 23 3 25 33 22 l32 -3 3 -92 3 -93 54 0 55 0 0 70 0 70 30 0 30 0 0 -71 0
-70 38 3 37 3 3 78 3 77 35 0 36 0 -4 -80 -3 -80 44 0 44 0 -6 74 c-4 41 -8
80 -9 87 -2 7 11 15 29 19 29 7 32 5 37 -23 3 -16 6 -58 6 -93 l0 -64 140 0
140 0 0 36 c0 64 -12 74 -88 74 -64 0 -68 2 -87 31 -24 36 -23 39 17 106 l31
52 29 -15 28 -15 -25 -43z m1710 0 c-14 -23 -25 -46 -25 -49 0 -4 26 -7 58 -7
96 0 132 -44 132 -164 l0 -66 -172 -2 -172 -3 -7 -33 c-8 -42 -34 -70 -73 -81
-41 -11 -56 -4 -56 25 0 17 6 24 19 24 41 0 51 35 51 183 l0 138 33 -3 32 -3
3 -92 3 -93 134 0 135 0 0 44 c0 24 -6 48 -13 54 -7 6 -41 12 -76 14 -57 3
-66 6 -87 34 l-24 30 37 62 36 61 29 -15 28 -15 -25 -43z m-7655 46 c31 -15
80 -72 80 -93 0 -5 -18 -9 -39 -9 -30 0 -41 5 -46 18 -6 19 -44 42 -71 42 -28
0 -70 -28 -82 -55 -16 -35 -15 -100 3 -134 29 -57 127 -65 150 -13 8 17 18 22
48 22 35 0 38 -2 32 -22 -11 -35 -54 -76 -93 -89 -45 -15 -116 -5 -154 22 -79
57 -89 205 -20 283 41 46 131 59 192 28z m6250 -157 l0 -175 -29 0 -28 0 -7
165 c-4 91 -5 169 -1 175 3 5 19 10 36 10 l29 0 0 -175z m290 145 c0 -28 -3
-30 -35 -30 -32 0 -35 2 -35 30 0 28 3 30 35 30 32 0 35 -2 35 -30z m88 -2 c3
-26 1 -28 -32 -28 -33 0 -36 2 -36 31 0 28 2 30 33 27 27 -2 33 -8 35 -30z
m202 2 c0 -28 -3 -30 -35 -30 -32 0 -35 2 -35 30 0 28 3 30 35 30 32 0 35 -2
35 -30z m440 0 c0 -28 -3 -30 -35 -30 -32 0 -35 2 -35 30 0 28 3 30 35 30 32
0 35 -2 35 -30z m90 0 c0 -28 -3 -30 -35 -30 -32 0 -35 2 -35 30 0 28 3 30 35
30 32 0 35 -2 35 -30z m-5290 -5 c0 -25 -1 -25 -80 -25 l-80 0 0 -45 0 -45 75
0 c73 0 75 -1 75 -25 0 -24 -2 -25 -75 -25 l-75 0 0 -50 0 -50 80 0 c79 0 80
0 80 -25 l0 -25 -115 0 -115 0 0 170 0 170 115 0 115 0 0 -25z m-1350 -35 c0
-27 3 -30 30 -30 27 0 30 -3 30 -30 0 -27 -3 -30 -30 -30 l-30 0 0 -65 0 -65
30 0 c27 0 30 -3 30 -30 0 -29 -2 -30 -42 -30 -68 0 -88 27 -88 117 0 66 -2
73 -20 73 -16 0 -20 7 -20 30 0 23 4 30 20 30 14 0 20 7 20 23 0 31 7 37 42
37 24 0 28 -4 28 -30z m-1816 10 l26 -10 0 -128 c0 -86 -4 -132 -12 -140 -17
-17 -329 -17 -346 0 -8 8 -12 53 -12 134 0 159 -6 154 182 154 75 0 148 -4
162 -10z m460 0 l26 -10 0 -128 c0 -86 -4 -132 -12 -140 -17 -17 -329 -17
-346 0 -8 8 -12 53 -12 134 0 159 -6 154 182 154 75 0 148 -4 162 -10z m967
-69 c28 -28 29 -33 29 -125 l0 -96 -30 0 c-21 0 -30 5 -30 16 0 13 -5 12 -26
-5 -57 -45 -144 -12 -144 54 0 52 31 75 102 75 52 0 58 2 58 20 0 28 -40 46
-69 31 -11 -7 -21 -16 -21 -21 0 -11 -53 -14 -63 -4 -11 11 16 55 42 69 14 8
48 14 74 15 41 0 53 -5 78 -29z m154 9 l6 -20 26 20 c41 32 63 27 63 -15 0
-31 -3 -35 -27 -35 -48 0 -63 -25 -63 -107 l0 -73 -35 0 -35 0 0 125 0 125 29
0 c21 0 32 -6 36 -20z m549 -12 c44 -44 53 -94 28 -151 -30 -67 -96 -92 -165
-63 -85 35 -99 159 -26 221 24 19 42 25 81 25 43 0 54 -4 82 -32z m156 17 c0
-19 9 -19 34 0 27 20 89 19 115 -2 27 -22 40 -77 41 -165 l0 -68 -35 0 -35 0
0 78 c0 89 -12 115 -55 115 -43 0 -55 -26 -55 -115 l0 -78 -35 0 -35 0 0 125
0 125 30 0 c20 0 30 -5 30 -15z m423 3 c40 -21 46 -39 47 -140 l0 -98 -25 0
c-14 0 -28 7 -31 15 -5 12 -11 11 -34 -7 -56 -41 -140 -3 -140 62 0 43 41 70
106 70 60 0 70 8 48 38 -19 27 -49 28 -71 2 -10 -11 -30 -20 -45 -20 -38 0
-37 31 3 64 34 29 102 36 142 14z m592 -28 c15 -22 30 -40 34 -40 3 1 18 19
33 40 24 34 33 40 64 40 l36 0 -46 -64 -45 -64 39 -55 c22 -31 40 -58 40 -61
0 -3 -15 -6 -32 -6 -27 0 -38 8 -62 41 l-28 40 -30 -40 c-25 -34 -35 -41 -65
-41 l-34 0 40 58 c23 32 41 61 41 65 0 4 -18 32 -40 62 -22 30 -40 57 -40 60
0 3 15 5 34 5 28 0 38 -7 61 -40z m269 24 c5 -14 8 -14 28 0 12 9 40 16 61 16
31 0 46 -7 72 -33 62 -62 55 -158 -14 -204 -39 -26 -74 -29 -113 -9 l-28 15 0
-65 0 -64 -35 0 -35 0 0 180 0 180 29 0 c17 0 31 -6 35 -16z m323 -4 c5 -20 5
-20 30 0 41 32 63 26 63 -15 0 -31 -3 -35 -25 -35 -46 0 -65 -32 -65 -110 l0
-70 -35 0 -35 0 0 118 c0 65 3 122 7 125 15 15 55 7 60 -13z m333 -7 c29 -26
55 -94 42 -107 -3 -4 -45 -6 -94 -6 -48 0 -88 -3 -88 -8 0 -4 7 -18 16 -30 16
-23 67 -31 79 -12 7 12 75 14 75 2 0 -39 -78 -78 -135 -68 -105 20 -138 160
-54 230 44 37 117 37 159 -1z m273 -5 l32 -33 -29 -3 c-16 -2 -39 2 -51 8 -28
15 -60 9 -60 -10 0 -9 22 -22 58 -33 66 -21 92 -50 81 -92 -15 -60 -113 -84
-175 -42 -44 29 -52 67 -14 67 14 0 39 -9 54 -21 24 -17 32 -19 50 -9 33 17
21 33 -40 52 -64 21 -93 51 -84 87 10 40 43 61 98 61 42 0 53 -5 80 -32z m261
6 c14 -15 26 -31 26 -35 0 -12 -67 -11 -75 1 -8 14 -52 13 -61 -2 -10 -15 19
-35 64 -43 44 -8 82 -40 82 -70 0 -35 -37 -73 -76 -81 -66 -12 -144 28 -144
73 0 21 48 15 81 -9 23 -17 34 -20 47 -12 31 20 19 39 -38 57 -65 20 -82 36
-82 73 0 70 121 103 176 48z m1072 -77 l7 -87 63 0 64 0 0 95 0 95 30 0 30 0
0 -126 0 -125 -192 1 c-271 2 -288 1 -288 -11 0 -26 -33 -76 -60 -93 -62 -36
-177 -17 -214 36 -17 23 -21 102 -10 171 6 32 10 37 35 37 15 0 30 -4 33 -8 3
-5 0 -39 -5 -76 -9 -56 -8 -71 5 -90 26 -41 111 -42 138 -2 4 6 8 62 8 124 l0
113 33 -3 32 -3 3 -67 3 -68 33 0 c29 0 34 4 40 31 3 17 6 53 6 80 0 48 1 49
30 49 l30 0 0 -80 0 -80 41 0 42 0 -6 89 -6 90 27 3 c15 2 30 1 34 -2 4 -3 11
-45 14 -93z m1922 6 l3 -93 49 0 50 0 0 96 0 95 33 -3 32 -3 3 -122 3 -123
-171 0 -170 0 -32 29 c-30 27 -33 34 -33 88 0 103 38 133 165 130 l65 -2 3
-92z m460 0 l3 -93 64 0 65 0 0 95 0 95 30 0 30 0 0 -125 0 -125 -94 0 -94 0
-6 -34 c-4 -21 -19 -45 -37 -60 -26 -22 -40 -26 -98 -26 -37 0 -70 2 -73 5 -3
3 -3 17 0 31 4 23 7 24 48 18 51 -7 94 14 94 46 0 17 -7 20 -45 20 -59 0 -91
16 -110 55 -33 72 -7 161 55 182 19 7 64 11 100 10 l65 -2 3 -92z m-3118 -23
l0 -30 -75 0 -75 0 0 30 0 30 75 0 75 0 0 -30z m870 -210 c0 -27 -3 -30 -30
-30 -27 0 -30 3 -30 30 0 27 3 30 30 30 27 0 30 -3 30 -30z m90 0 c0 -27 -3
-30 -30 -30 -27 0 -30 3 -30 30 0 27 3 30 30 30 27 0 30 -3 30 -30z m340 0 c0
-28 -3 -30 -35 -30 -32 0 -35 2 -35 30 0 28 3 30 35 30 32 0 35 -2 35 -30z
m970 19 c0 -5 -13 -15 -30 -20 -42 -15 -39 -39 5 -39 24 0 35 -5 35 -15 0 -12
-13 -15 -61 -15 l-61 0 7 33 c4 17 14 40 23 50 16 18 82 24 82 6z m2095 -654
l0 -40 -5565 0 -5565 0 -3 28 c-2 16 -1 35 2 42 4 10 1005 12 5568 11 l5563
-1 0 -40z"/>
<path d="M13652 8188 c5 -32 28 -35 28 -4 0 17 -5 26 -16 26 -10 0 -14 -7 -12
-22z"/>
<path d="M13982 8203 c-12 -22 -5 -43 14 -43 8 0 14 10 14 24 0 31 -16 42 -28
19z"/>
<path d="M2916 4658 c-41 -41 -144 -216 -152 -257 l-6 -31 206 0 206 0 0 160
0 160 -111 0 -111 0 -32 -32z"/>
<path d="M2989 3971 c-55 -56 -23 -142 54 -144 82 -2 120 94 56 147 -40 34
-74 33 -110 -3z"/>
<path d="M3801 3974 c-64 -53 -26 -149 56 -147 77 2 109 88 54 144 -36 36 -70
37 -110 3z"/>
<path d="M5087 4373 c-12 -12 -7 -41 8 -47 30 -11 75 19 75 50 0 7 -76 5 -83
-3z"/>
<path d="M5792 4458 c-33 -40 -20 -113 22 -124 54 -13 91 46 64 103 -15 31
-66 44 -86 21z"/>
<path d="M6387 4373 c-13 -13 -7 -32 14 -43 16 -9 26 -8 45 5 37 24 31 45 -14
45 -21 0 -42 -3 -45 -7z"/>
<path d="M7377 4452 c-23 -25 -21 -78 3 -102 28 -28 64 -25 89 6 25 32 27 61
5 92 -19 28 -74 30 -97 4z"/>
<path d="M7888 4458 l-23 -23 33 -3 c17 -2 47 -2 65 0 l32 3 -22 23 c-13 12
-32 22 -43 22 -11 0 -30 -10 -42 -22z"/>
<path d="M11386 4454 c-16 -15 -21 -69 -10 -98 4 -11 19 -16 50 -16 l44 0 0
65 0 65 -34 0 c-19 0 -42 -7 -50 -16z"/>
<path d="M11846 4454 c-16 -15 -21 -69 -10 -98 4 -11 19 -16 50 -16 l44 0 0
65 0 65 -34 0 c-19 0 -42 -7 -50 -16z"/>
</g>
</svg>
